<mxfile host="app.diagrams.net" modified="2021-01-31T02:21:55.105Z" agent="5.0 (Windows NT 10.0; Win64; x64) AppleWebKit/537.36 (KHTML, like Gecko) Chrome/87.0.4280.141 Safari/537.36" etag="975B-gPXNNzceeupBGk7" version="14.2.7" type="github">
  <diagram id="zweUdmbLniDzrKflGMgS" name="Page-1">
    <mxGraphModel dx="782" dy="481" grid="1" gridSize="10" guides="1" tooltips="1" connect="1" arrows="1" fold="1" page="1" pageScale="1" pageWidth="827" pageHeight="1169" math="0" shadow="0">
      <root>
        <mxCell id="0" />
        <mxCell id="1" parent="0" />
        <mxCell id="VT1aavtxXECYgDVy_Fky-9" value="" style="rounded=1;whiteSpace=wrap;html=1;dashed=1;" vertex="1" parent="1">
          <mxGeometry x="378" y="73" width="160" height="297" as="geometry" />
        </mxCell>
        <mxCell id="VT1aavtxXECYgDVy_Fky-1" value="计算机及办公设备&lt;br&gt;租赁" style="rounded=1;whiteSpace=wrap;html=1;fontStyle=1;fontSize=15;" vertex="1" parent="1">
          <mxGeometry x="30" y="170" width="130" height="60" as="geometry" />
        </mxCell>
        <mxCell id="VT1aavtxXECYgDVy_Fky-3" value="办公软件环境搭建" style="rounded=1;whiteSpace=wrap;html=1;fontStyle=1;fontSize=15;" vertex="1" parent="1">
          <mxGeometry x="210" y="170" width="130" height="60" as="geometry" />
        </mxCell>
        <mxCell id="VT1aavtxXECYgDVy_Fky-4" value="员工数据上传" style="rounded=1;whiteSpace=wrap;html=1;fontStyle=1;fontSize=15;" vertex="1" parent="1">
          <mxGeometry x="393" y="100" width="130" height="60" as="geometry" />
        </mxCell>
        <mxCell id="VT1aavtxXECYgDVy_Fky-5" value="文档协作" style="rounded=1;whiteSpace=wrap;html=1;fontStyle=1;fontSize=15;" vertex="1" parent="1">
          <mxGeometry x="393" y="230" width="130" height="60" as="geometry" />
        </mxCell>
        <mxCell id="VT1aavtxXECYgDVy_Fky-6" value="沉淀形成企业WiKi" style="rounded=1;whiteSpace=wrap;html=1;fontStyle=1;fontSize=15;" vertex="1" parent="1">
          <mxGeometry x="600" y="170" width="130" height="60" as="geometry" />
        </mxCell>
        <mxCell id="VT1aavtxXECYgDVy_Fky-7" value="" style="shape=flexArrow;endArrow=classic;html=1;exitX=1;exitY=0.5;exitDx=0;exitDy=0;" edge="1" parent="1" source="VT1aavtxXECYgDVy_Fky-1" target="VT1aavtxXECYgDVy_Fky-3">
          <mxGeometry width="50" height="50" relative="1" as="geometry">
            <mxPoint x="220" y="360" as="sourcePoint" />
            <mxPoint x="270" y="310" as="targetPoint" />
          </mxGeometry>
        </mxCell>
        <mxCell id="VT1aavtxXECYgDVy_Fky-10" value="" style="shape=flexArrow;endArrow=classic;html=1;exitX=1;exitY=0.5;exitDx=0;exitDy=0;" edge="1" parent="1" source="VT1aavtxXECYgDVy_Fky-3">
          <mxGeometry width="50" height="50" relative="1" as="geometry">
            <mxPoint x="230" y="330" as="sourcePoint" />
            <mxPoint x="380" y="200" as="targetPoint" />
          </mxGeometry>
        </mxCell>
        <mxCell id="VT1aavtxXECYgDVy_Fky-11" value="" style="shape=flexArrow;endArrow=classic;html=1;" edge="1" parent="1" target="VT1aavtxXECYgDVy_Fky-6">
          <mxGeometry width="50" height="50" relative="1" as="geometry">
            <mxPoint x="535" y="203" as="sourcePoint" />
            <mxPoint x="690" y="300" as="targetPoint" />
          </mxGeometry>
        </mxCell>
        <mxCell id="VT1aavtxXECYgDVy_Fky-12" value="企业办公流程标准&lt;br&gt;企业WiKi" style="rounded=1;whiteSpace=wrap;html=1;fontStyle=1;fontSize=15;" vertex="1" parent="1">
          <mxGeometry x="30" y="420" width="130" height="60" as="geometry" />
        </mxCell>
        <mxCell id="VT1aavtxXECYgDVy_Fky-13" value="新员工入职培训&lt;br&gt;基础教程" style="rounded=1;whiteSpace=wrap;html=1;fontStyle=1;fontSize=15;" vertex="1" parent="1">
          <mxGeometry x="210" y="420" width="130" height="60" as="geometry" />
        </mxCell>
        <mxCell id="VT1aavtxXECYgDVy_Fky-16" value="减少错误&lt;br&gt;提高效率" style="rounded=1;whiteSpace=wrap;html=1;fontStyle=1;fontSize=15;" vertex="1" parent="1">
          <mxGeometry x="414" y="420" width="130" height="60" as="geometry" />
        </mxCell>
        <mxCell id="VT1aavtxXECYgDVy_Fky-17" value="数据可溯源" style="rounded=1;whiteSpace=wrap;html=1;fontStyle=1;fontSize=15;" vertex="1" parent="1">
          <mxGeometry x="600" y="420" width="130" height="60" as="geometry" />
        </mxCell>
        <mxCell id="VT1aavtxXECYgDVy_Fky-18" value="" style="shape=flexArrow;endArrow=classic;html=1;exitX=1;exitY=0.5;exitDx=0;exitDy=0;" edge="1" parent="1">
          <mxGeometry width="50" height="50" relative="1" as="geometry">
            <mxPoint x="160" y="449.5" as="sourcePoint" />
            <mxPoint x="210" y="449.5" as="targetPoint" />
          </mxGeometry>
        </mxCell>
        <mxCell id="VT1aavtxXECYgDVy_Fky-19" value="" style="shape=flexArrow;endArrow=classic;html=1;exitX=1;exitY=0.5;exitDx=0;exitDy=0;entryX=0;entryY=0.5;entryDx=0;entryDy=0;" edge="1" parent="1" source="VT1aavtxXECYgDVy_Fky-13" target="VT1aavtxXECYgDVy_Fky-16">
          <mxGeometry width="50" height="50" relative="1" as="geometry">
            <mxPoint x="364" y="459.5" as="sourcePoint" />
            <mxPoint x="414" y="459.5" as="targetPoint" />
          </mxGeometry>
        </mxCell>
        <mxCell id="VT1aavtxXECYgDVy_Fky-20" value="" style="shape=flexArrow;endArrow=classic;html=1;exitX=1;exitY=0.5;exitDx=0;exitDy=0;entryX=0;entryY=0.5;entryDx=0;entryDy=0;" edge="1" parent="1" source="VT1aavtxXECYgDVy_Fky-16" target="VT1aavtxXECYgDVy_Fky-17">
          <mxGeometry width="50" height="50" relative="1" as="geometry">
            <mxPoint x="350" y="460" as="sourcePoint" />
            <mxPoint x="424" y="460" as="targetPoint" />
          </mxGeometry>
        </mxCell>
        <mxCell id="VT1aavtxXECYgDVy_Fky-21" value="&lt;b&gt;&lt;font style=&quot;font-size: 18px&quot; color=&quot;#3333ff&quot;&gt;Design By BaiZe IntelligentedHome&lt;/font&gt;&lt;/b&gt;" style="text;html=1;align=center;verticalAlign=middle;resizable=0;points=[];autosize=1;" vertex="1" parent="1">
          <mxGeometry x="250" y="500" width="320" height="20" as="geometry" />
        </mxCell>
        <mxCell id="VT1aavtxXECYgDVy_Fky-22" value="&lt;font color=&quot;#3333ff&quot;&gt;2021.01.30&lt;/font&gt;" style="text;html=1;align=center;verticalAlign=middle;resizable=0;points=[];autosize=1;" vertex="1" parent="1">
          <mxGeometry x="610" y="500" width="80" height="20" as="geometry" />
        </mxCell>
        <mxCell id="VT1aavtxXECYgDVy_Fky-23" value="&lt;b&gt;&lt;font style=&quot;font-size: 15px&quot;&gt;团队协作效率&lt;br&gt;来自于标准统一&lt;br&gt;的办公软件环境&lt;br&gt;&lt;/font&gt;&lt;/b&gt;" style="text;html=1;align=center;verticalAlign=middle;resizable=0;points=[];autosize=1;" vertex="1" parent="1">
          <mxGeometry x="398" y="315" width="120" height="50" as="geometry" />
        </mxCell>
      </root>
    </mxGraphModel>
  </diagram>
</mxfile>
